<?xml version="1.0" encoding="utf-8" standalone="no"?>
<!DOCTYPE svg PUBLIC "-//W3C//DTD SVG 1.1//EN"
  "http://www.w3.org/Graphics/SVG/1.1/DTD/svg11.dtd">
<svg xmlns:xlink="http://www.w3.org/1999/xlink" width="496.8pt" height="468pt" viewBox="0 0 496.8 468" xmlns="http://www.w3.org/2000/svg" version="1.1">
 <metadata>
  <rdf:RDF xmlns:dc="http://purl.org/dc/elements/1.1/" xmlns:cc="http://creativecommons.org/ns#" xmlns:rdf="http://www.w3.org/1999/02/22-rdf-syntax-ns#">
   <cc:Work>
    <dc:type rdf:resource="http://purl.org/dc/dcmitype/StillImage"/>
    <dc:date>2026-06-18T14:30:44.429157</dc:date>
    <dc:format>image/svg+xml</dc:format>
    <dc:creator>
     <cc:Agent>
      <dc:title>Matplotlib v3.10.8, https://matplotlib.org/</dc:title>
     </cc:Agent>
    </dc:creator>
   </cc:Work>
  </rdf:RDF>
 </metadata>
 <defs>
  <style type="text/css">*{stroke-linejoin: round; stroke-linecap: butt}</style>
 </defs>
 <g id="figure_1">
  <g id="patch_1">
   <path d="M 0 468 
L 496.8 468 
L 496.8 0 
L 0 0 
L 0 468 
z
" style="fill: none"/>
  </g>
  <g id="axes_1">
   <g id="patch_2">
    <path d="M 21.672 74.916 
L 168.804 74.916 
L 168.804 58.716 
L 21.672 58.716 
L 21.672 74.916 
z
" clip-path="url(#p5c54db7147)" style="fill: none; stroke: #d4d4d0; stroke-width: 0.8; stroke-linejoin: miter"/>
   </g>
   <g id="patch_3">
    <path d="M 176.04 74.916 
L 323.172 74.916 
L 323.172 58.716 
L 176.04 58.716 
L 176.04 74.916 
z
" clip-path="url(#p5c54db7147)" style="fill: none; stroke: #d4d4d0; stroke-width: 0.8; stroke-linejoin: miter"/>
   </g>
   <g id="patch_4">
    <path d="M 330.408 74.916 
L 477.54 74.916 
L 477.54 58.716 
L 330.408 58.716 
L 330.408 74.916 
z
" clip-path="url(#p5c54db7147)" style="fill: none; stroke: #d4d4d0; stroke-width: 0.8; stroke-linejoin: miter"/>
   </g>
   <g id="patch_5">
    <path d="M 21.672 95.004 
L 168.804 95.004 
L 168.804 78.804 
L 21.672 78.804 
L 21.672 95.004 
z
" clip-path="url(#p5c54db7147)" style="fill: none; stroke: #d4d4d0; stroke-width: 0.8; stroke-linejoin: miter"/>
   </g>
   <g id="patch_6">
    <path d="M 176.04 95.004 
L 323.172 95.004 
L 323.172 78.804 
L 176.04 78.804 
L 176.04 95.004 
z
" clip-path="url(#p5c54db7147)" style="fill: none; stroke: #d4d4d0; stroke-width: 0.8; stroke-linejoin: miter"/>
   </g>
   <g id="patch_7">
    <path d="M 330.408 95.004 
L 477.54 95.004 
L 477.54 78.804 
L 330.408 78.804 
L 330.408 95.004 
z
" clip-path="url(#p5c54db7147)" style="fill: none; stroke: #d4d4d0; stroke-width: 0.8; stroke-linejoin: miter"/>
   </g>
   <g id="patch_8">
    <path d="M 21.672 115.092 
L 168.804 115.092 
L 168.804 98.892 
L 21.672 98.892 
L 21.672 115.092 
z
" clip-path="url(#p5c54db7147)" style="fill: none; stroke: #d4d4d0; stroke-width: 0.8; stroke-linejoin: miter"/>
   </g>
   <g id="patch_9">
    <path d="M 176.04 115.092 
L 323.172 115.092 
L 323.172 98.892 
L 176.04 98.892 
L 176.04 115.092 
z
" clip-path="url(#p5c54db7147)" style="fill: none; stroke: #d4d4d0; stroke-width: 0.8; stroke-linejoin: miter"/>
   </g>
   <g id="patch_10">
    <path d="M 330.408 115.092 
L 477.54 115.092 
L 477.54 98.892 
L 330.408 98.892 
L 330.408 115.092 
z
" clip-path="url(#p5c54db7147)" style="fill: none; stroke: #d4d4d0; stroke-width: 0.8; stroke-linejoin: miter"/>
   </g>
   <g id="patch_11">
    <path d="M 21.672 135.18 
L 168.804 135.18 
L 168.804 118.98 
L 21.672 118.98 
L 21.672 135.18 
z
" clip-path="url(#p5c54db7147)" style="fill: none; stroke: #d4d4d0; stroke-width: 0.8; stroke-linejoin: miter"/>
   </g>
   <g id="patch_12">
    <path d="M 176.04 135.18 
L 323.172 135.18 
L 323.172 118.98 
L 176.04 118.98 
L 176.04 135.18 
z
" clip-path="url(#p5c54db7147)" style="fill: none; stroke: #d4d4d0; stroke-width: 0.8; stroke-linejoin: miter"/>
   </g>
   <g id="patch_13">
    <path d="M 330.408 135.18 
L 477.54 135.18 
L 477.54 118.98 
L 330.408 118.98 
L 330.408 135.18 
z
" clip-path="url(#p5c54db7147)" style="fill: none; stroke: #d4d4d0; stroke-width: 0.8; stroke-linejoin: miter"/>
   </g>
   <g id="patch_14">
    <path d="M 21.672 206.46 
L 168.804 206.46 
L 168.804 190.26 
L 21.672 190.26 
L 21.672 206.46 
z
" clip-path="url(#p5c54db7147)" style="fill: none; stroke: #d4d4d0; stroke-width: 0.8; stroke-linejoin: miter"/>
   </g>
   <g id="patch_15">
    <path d="M 176.04 206.46 
L 323.172 206.46 
L 323.172 190.26 
L 176.04 190.26 
L 176.04 206.46 
z
" clip-path="url(#p5c54db7147)" style="fill: none; stroke: #d4d4d0; stroke-width: 0.8; stroke-linejoin: miter"/>
   </g>
   <g id="patch_16">
    <path d="M 330.408 206.46 
L 477.54 206.46 
L 477.54 190.26 
L 330.408 190.26 
L 330.408 206.46 
z
" clip-path="url(#p5c54db7147)" style="fill: none; stroke: #d4d4d0; stroke-width: 0.8; stroke-linejoin: miter"/>
   </g>
   <g id="patch_17">
    <path d="M 21.672 226.548 
L 168.804 226.548 
L 168.804 210.348 
L 21.672 210.348 
L 21.672 226.548 
z
" clip-path="url(#p5c54db7147)" style="fill: none; stroke: #d4d4d0; stroke-width: 0.8; stroke-linejoin: miter"/>
   </g>
   <g id="patch_18">
    <path d="M 176.04 226.548 
L 323.172 226.548 
L 323.172 210.348 
L 176.04 210.348 
L 176.04 226.548 
z
" clip-path="url(#p5c54db7147)" style="fill: none; stroke: #d4d4d0; stroke-width: 0.8; stroke-linejoin: miter"/>
   </g>
   <g id="patch_19">
    <path d="M 21.672 297.828 
L 168.804 297.828 
L 168.804 281.628 
L 21.672 281.628 
L 21.672 297.828 
z
" clip-path="url(#p5c54db7147)" style="fill: none; stroke: #d4d4d0; stroke-width: 0.8; stroke-linejoin: miter"/>
   </g>
   <g id="patch_20">
    <path d="M 176.04 297.828 
L 323.172 297.828 
L 323.172 281.628 
L 176.04 281.628 
L 176.04 297.828 
z
" clip-path="url(#p5c54db7147)" style="fill: none; stroke: #d4d4d0; stroke-width: 0.8; stroke-linejoin: miter"/>
   </g>
   <g id="patch_21">
    <path d="M 330.408 297.828 
L 477.54 297.828 
L 477.54 281.628 
L 330.408 281.628 
L 330.408 297.828 
z
" clip-path="url(#p5c54db7147)" style="fill: none; stroke: #d4d4d0; stroke-width: 0.8; stroke-linejoin: miter"/>
   </g>
   <g id="patch_22">
    <path d="M 21.672 317.916 
L 168.804 317.916 
L 168.804 301.716 
L 21.672 301.716 
L 21.672 317.916 
z
" clip-path="url(#p5c54db7147)" style="fill: none; stroke: #d4d4d0; stroke-width: 0.8; stroke-linejoin: miter"/>
   </g>
   <g id="patch_23">
    <path d="M 176.04 317.916 
L 323.172 317.916 
L 323.172 301.716 
L 176.04 301.716 
L 176.04 317.916 
z
" clip-path="url(#p5c54db7147)" style="fill: none; stroke: #d4d4d0; stroke-width: 0.8; stroke-linejoin: miter"/>
   </g>
   <g id="patch_24">
    <path d="M 330.408 317.916 
L 477.54 317.916 
L 477.54 301.716 
L 330.408 301.716 
L 330.408 317.916 
z
" clip-path="url(#p5c54db7147)" style="fill: none; stroke: #d4d4d0; stroke-width: 0.8; stroke-linejoin: miter"/>
   </g>
   <g id="patch_25">
    <path d="M 21.672 338.004 
L 168.804 338.004 
L 168.804 321.804 
L 21.672 321.804 
L 21.672 338.004 
z
" clip-path="url(#p5c54db7147)" style="fill: none; stroke: #d4d4d0; stroke-width: 0.8; stroke-linejoin: miter"/>
   </g>
   <g id="patch_26">
    <path d="M 21.672 409.284 
L 168.804 409.284 
L 168.804 393.084 
L 21.672 393.084 
L 21.672 409.284 
z
" clip-path="url(#p5c54db7147)" style="fill: none; stroke: #d4d4d0; stroke-width: 0.8; stroke-linejoin: miter"/>
   </g>
   <g id="patch_27">
    <path d="M 176.04 409.284 
L 323.172 409.284 
L 323.172 393.084 
L 176.04 393.084 
L 176.04 409.284 
z
" clip-path="url(#p5c54db7147)" style="fill: none; stroke: #d4d4d0; stroke-width: 0.8; stroke-linejoin: miter"/>
   </g>
   <g id="text_1">
    <text style="font-weight: 700; font-size: 12.5px; font-family: 'DejaVu Sans'; text-anchor: start; fill: #1a1a1a" x="16.848" y="29.88" transform="rotate(-0 16.848 29.88)">Очевидные</text>
   </g>
   <g id="text_2">
    <text style="font-style: italic; font-size: 8.5px; font-family: 'DejaVu Sans'; text-anchor: start; fill: #6b6b6b" x="16.848" y="43.488" transform="rotate(-0 16.848 43.488)">ловят все, даже дешёвая модель</text>
   </g>
   <g id="text_3">
    <text style="font-size: 8px; font-family: 'DejaVu Sans'; text-anchor: start; fill: #1a1a1a" x="27.4608" y="67.7275" transform="rotate(-0 27.4608 67.7275)">guardrail</text>
   </g>
   <g id="text_4">
    <text style="font-size: 8px; font-family: 'DejaVu Sans'; text-anchor: start; fill: #1a1a1a" x="181.8288" y="67.61625" transform="rotate(-0 181.8288 67.61625)">multiple_comp</text>
   </g>
   <g id="text_5">
    <text style="font-size: 8px; font-family: 'DejaVu Sans'; text-anchor: start; fill: #1a1a1a" x="336.1968" y="67.61625" transform="rotate(-0 336.1968 67.61625)">segment_conflict</text>
   </g>
   <g id="text_6">
    <text style="font-size: 8px; font-family: 'DejaVu Sans'; text-anchor: start; fill: #1a1a1a" x="27.4608" y="87.8155" transform="rotate(-0 27.4608 87.8155)">SRM</text>
   </g>
   <g id="text_7">
    <text style="font-size: 8px; font-family: 'DejaVu Sans'; text-anchor: start; fill: #1a1a1a" x="181.8288" y="87.8155" transform="rotate(-0 181.8288 87.8155)">heterogeneity</text>
   </g>
   <g id="text_8">
    <text style="font-size: 8px; font-family: 'DejaVu Sans'; text-anchor: start; fill: #1a1a1a" x="336.1968" y="87.8155" transform="rotate(-0 336.1968 87.8155)">bots</text>
   </g>
   <g id="text_9">
    <text style="font-size: 8px; font-family: 'DejaVu Sans'; text-anchor: start; fill: #1a1a1a" x="27.4608" y="107.9035" transform="rotate(-0 27.4608 107.9035)">contamination</text>
   </g>
   <g id="text_10">
    <text style="font-size: 8px; font-family: 'DejaVu Sans'; text-anchor: start; fill: #1a1a1a" x="181.8288" y="107.79225" transform="rotate(-0 181.8288 107.79225)">ratio_metric</text>
   </g>
   <g id="text_11">
    <text style="font-size: 8px; font-family: 'DejaVu Sans'; text-anchor: start; fill: #1a1a1a" x="336.1968" y="107.9035" transform="rotate(-0 336.1968 107.9035)">CUPED</text>
   </g>
   <g id="text_12">
    <text style="font-size: 8px; font-family: 'DejaVu Sans'; text-anchor: start; fill: #1a1a1a" x="27.4608" y="127.88025" transform="rotate(-0 27.4608 127.88025)">heavy_tails</text>
   </g>
   <g id="text_13">
    <text style="font-size: 8px; font-family: 'DejaVu Sans'; text-anchor: start; fill: #1a1a1a" x="181.8288" y="127.88025" transform="rotate(-0 181.8288 127.88025)">logging_bug</text>
   </g>
   <g id="text_14">
    <text style="font-size: 8px; font-family: 'DejaVu Sans'; text-anchor: start; fill: #1a1a1a" x="336.1968" y="127.88025" transform="rotate(-0 336.1968 127.88025)">missing_data</text>
   </g>
   <g id="text_15">
    <text style="font-weight: 700; font-size: 12.5px; font-family: 'DejaVu Sans'; text-anchor: start; fill: #6b6b6b" x="16.848" y="161.424" transform="rotate(-0 16.848 161.424)">Серая зона вердикта</text>
   </g>
   <g id="text_16">
    <text style="font-style: italic; font-size: 8.5px; font-family: 'DejaVu Sans'; text-anchor: start; fill: #6b6b6b" x="16.848" y="175.032" transform="rotate(-0 16.848 175.032)">обе не катят, спорят об оттенке</text>
   </g>
   <g id="text_17">
    <text style="font-size: 8px; font-family: 'DejaVu Sans'; text-anchor: start; fill: #1a1a1a" x="27.4608" y="199.2715" transform="rotate(-0 27.4608 199.2715)">simpson</text>
   </g>
   <g id="text_18">
    <text style="font-size: 8px; font-family: 'DejaVu Sans'; text-anchor: start; fill: #1a1a1a" x="181.8288" y="199.2715" transform="rotate(-0 181.8288 199.2715)">posttreatment</text>
   </g>
   <g id="text_19">
    <text style="font-size: 8px; font-family: 'DejaVu Sans'; text-anchor: start; fill: #1a1a1a" x="336.1968" y="199.16025" transform="rotate(-0 336.1968 199.16025)">longterm_value</text>
   </g>
   <g id="text_20">
    <text style="font-size: 8px; font-family: 'DejaVu Sans'; text-anchor: start; fill: #1a1a1a" x="27.4608" y="219.3595" transform="rotate(-0 27.4608 219.3595)">underpowered</text>
   </g>
   <g id="text_21">
    <text style="font-size: 8px; font-family: 'DejaVu Sans'; text-anchor: start; fill: #1a1a1a" x="181.8288" y="219.3595" transform="rotate(-0 181.8288 219.3595)">HARKing</text>
   </g>
   <g id="text_22">
    <text style="font-weight: 700; font-size: 12.5px; font-family: 'DejaVu Sans'; text-anchor: start; fill: #e63946" x="16.848" y="252.792" transform="rotate(-0 16.848 252.792)">Вывести из контекста</text>
   </g>
   <g id="text_23">
    <text style="font-style: italic; font-size: 8.5px; font-family: 'DejaVu Sans'; text-anchor: start; fill: #6b6b6b" x="16.848" y="266.4" transform="rotate(-0 16.848 266.4)">отделяет сильную модель от слабой</text>
   </g>
   <g id="text_24">
    <text style="font-size: 8px; font-family: 'DejaVu Sans'; text-anchor: start; fill: #1a1a1a" x="27.4608" y="290.6395" transform="rotate(-0 27.4608 290.6395)">interference</text>
   </g>
   <g id="text_25">
    <text style="font-size: 8px; font-family: 'DejaVu Sans'; text-anchor: start; fill: #1a1a1a" x="181.8288" y="290.52825" transform="rotate(-0 181.8288 290.52825)">incomplete_cycles</text>
   </g>
   <g id="text_26">
    <text style="font-size: 8px; font-family: 'DejaVu Sans'; text-anchor: start; fill: #1a1a1a" x="336.1968" y="290.6395" transform="rotate(-0 336.1968 290.6395)">twyman</text>
   </g>
   <g id="text_27">
    <text style="font-size: 8px; font-family: 'DejaVu Sans'; text-anchor: start; fill: #1a1a1a" x="27.4608" y="310.7275" transform="rotate(-0 27.4608 310.7275)">seasonality</text>
   </g>
   <g id="text_28">
    <text style="font-size: 8px; font-family: 'DejaVu Sans'; text-anchor: start; fill: #1a1a1a" x="181.8288" y="310.61625" transform="rotate(-0 181.8288 310.61625)">external_shock</text>
   </g>
   <g id="text_29">
    <text style="font-size: 8px; font-family: 'DejaVu Sans'; text-anchor: start; fill: #1a1a1a" x="336.1968" y="310.61625" transform="rotate(-0 336.1968 310.61625)">narrow_general</text>
   </g>
   <g id="text_30">
    <text style="font-size: 8px; font-family: 'DejaVu Sans'; text-anchor: start; fill: #1a1a1a" x="27.4608" y="330.8155" transform="rotate(-0 27.4608 330.8155)">dilution</text>
   </g>
   <g id="text_31">
    <text style="font-weight: 700; font-size: 12.5px; font-family: 'DejaVu Sans'; text-anchor: start; fill: #6b6b6b" x="16.848" y="364.248" transform="rotate(-0 16.848 364.248)">Структурно слепые</text>
   </g>
   <g id="text_32">
    <text style="font-style: italic; font-size: 8.5px; font-family: 'DejaVu Sans'; text-anchor: start; fill: #6b6b6b" x="16.848" y="377.856" transform="rotate(-0 16.848 377.856)">сигнала в данных нет — обе честно investigate</text>
   </g>
   <g id="text_33">
    <text style="font-size: 8px; font-family: 'DejaVu Sans'; text-anchor: start; fill: #1a1a1a" x="27.4608" y="402.0955" transform="rotate(-0 27.4608 402.0955)">novelty</text>
   </g>
   <g id="text_34">
    <text style="font-size: 8px; font-family: 'DejaVu Sans'; text-anchor: start; fill: #1a1a1a" x="181.8288" y="401.98425" transform="rotate(-0 181.8288 401.98425)">long_term_reversal</text>
   </g>
  </g>
 </g>
 <defs>
  <clipPath id="p5c54db7147">
   <rect x="7.2" y="7.2" width="482.4" height="453.6"/>
  </clipPath>
 </defs>
</svg>
