<svg xmlns="http://www.w3.org/2000/svg" viewBox="0 0 800 400">

  <!-- Оси -->
  <line x1="60" y1="340" x2="740" y2="340" stroke="#0a0a0a" stroke-width="1"/>
  <line x1="60" y1="340" x2="60" y2="60" stroke="#0a0a0a" stroke-width="1"/>

  <!-- Сетка вертикальная (дни) -->
  <g stroke="#e5e5e5" stroke-width="0.5">
    <line x1="120" y1="60" x2="120" y2="340"/>
    <line x1="180" y1="60" x2="180" y2="340"/>
    <line x1="240" y1="60" x2="240" y2="340"/>
    <line x1="300" y1="60" x2="300" y2="340"/>
    <line x1="360" y1="60" x2="360" y2="340"/>
    <line x1="420" y1="60" x2="420" y2="340"/>
    <line x1="480" y1="60" x2="480" y2="340"/>
    <line x1="540" y1="60" x2="540" y2="340"/>
    <line x1="600" y1="60" x2="600" y2="340"/>
    <line x1="660" y1="60" x2="660" y2="340"/>
    <line x1="720" y1="60" x2="720" y2="340"/>
  </g>

  <!-- Сетка горизонтальная -->
  <g stroke="#e5e5e5" stroke-width="0.5">
    <line x1="60" y1="280" x2="740" y2="280"/>
    <line x1="60" y1="220" x2="740" y2="220"/>
    <line x1="60" y1="160" x2="740" y2="160"/>
    <line x1="60" y1="100" x2="740" y2="100"/>
  </g>

  <!-- Контрольная группа: Shows (пунктир, серый) -->
  <polyline points="80,220 120,220 180,221 240,220 300,220 360,221 420,220 480,220 540,220 600,221 660,220 720,220"
            fill="none" stroke="#a3a3a3" stroke-width="1.5" stroke-dasharray="4,4" opacity="0.8"/>

  <!-- Контрольная группа: Revenue (пунктир, серый) -->
  <polyline points="80,220 120,221 180,220 240,221 300,220 360,220 420,221 480,220 540,221 600,220 660,221 720,220"
            fill="none" stroke="#a3a3a3" stroke-width="1.5" stroke-dasharray="4,4" opacity="0.8"/>

  <!-- Тестовая группа: Shows (растёт +10%) -->
  <polyline points="80,220 120,218 180,216 240,213 300,211 360,208 420,206 480,203 540,200 600,197 660,194 720,190"
            fill="none" stroke="#0a0a0a" stroke-width="2"/>

  <!-- Тестовая группа: Revenue (падает -4%) -->
  <polyline points="80,220 120,220 180,220 240,222 300,224 360,225 420,227 480,228 540,229 600,231 660,231 720,232"
            fill="none" stroke="#e63946" stroke-width="2"/>

  <!-- Подпись оси X -->
  <text x="400" y="372" fill="#737373" font-size="11" font-family="'Geist Mono', ui-monospace, monospace" text-anchor="middle">Дни эксперимента</text>

  <!-- Подпись оси Y -->
  <text x="18" y="200" fill="#737373" font-size="11" font-family="'Geist Mono', ui-monospace, monospace" text-anchor="middle" transform="rotate(-90,18,200)">Индекс (день 0 = 1,0)</text>

  <!-- Метки дней -->
  <text x="80" y="355" fill="#737373" font-size="10" font-family="'Geist Mono', ui-monospace, monospace" text-anchor="middle">0</text>
  <text x="300" y="355" fill="#737373" font-size="10" font-family="'Geist Mono', ui-monospace, monospace" text-anchor="middle">7</text>
  <text x="720" y="355" fill="#737373" font-size="10" font-family="'Geist Mono', ui-monospace, monospace" text-anchor="middle">14</text>

  <!-- Метки значений (левая ось) -->
  <text x="52" y="283" fill="#737373" font-size="10" font-family="'Geist Mono', ui-monospace, monospace" text-anchor="end">0,8</text>
  <text x="52" y="222" fill="#737373" font-size="10" font-family="'Geist Mono', ui-monospace, monospace" text-anchor="end">1,0</text>
  <text x="52" y="162" fill="#737373" font-size="10" font-family="'Geist Mono', ui-monospace, monospace" text-anchor="end">1,2</text>
  <text x="52" y="102" fill="#737373" font-size="10" font-family="'Geist Mono', ui-monospace, monospace" text-anchor="end">1,4</text>

  <!-- Легенда -->
  <g font-family="'Geist Mono', ui-monospace, monospace" font-size="10">
    <line x1="76" y1="80" x2="106" y2="80" stroke="#0a0a0a" stroke-width="2"/>
    <text x="112" y="84" fill="#0a0a0a">Shows (тест)</text>
    <line x1="240" y1="80" x2="270" y2="80" stroke="#e63946" stroke-width="2"/>
    <text x="276" y="84" fill="#e63946">Revenue (тест)</text>
    <line x1="380" y1="80" x2="410" y2="80" stroke="#a3a3a3" stroke-width="1.5" stroke-dasharray="4,4"/>
    <text x="416" y="84" fill="#737373">Контроль</text>
  </g>

</svg>
