<?xml version="1.0" encoding="utf-8" standalone="no"?>
<!DOCTYPE svg PUBLIC "-//W3C//DTD SVG 1.1//EN"
  "http://www.w3.org/Graphics/SVG/1.1/DTD/svg11.dtd">
<svg xmlns:xlink="http://www.w3.org/1999/xlink" width="410.4pt" height="295.2pt" viewBox="0 0 410.4 295.2" xmlns="http://www.w3.org/2000/svg" version="1.1">
 <metadata>
  <rdf:RDF xmlns:dc="http://purl.org/dc/elements/1.1/" xmlns:cc="http://creativecommons.org/ns#" xmlns:rdf="http://www.w3.org/1999/02/22-rdf-syntax-ns#">
   <cc:Work>
    <dc:type rdf:resource="http://purl.org/dc/dcmitype/StillImage"/>
    <dc:date>2026-06-18T13:43:27.416044</dc:date>
    <dc:format>image/svg+xml</dc:format>
    <dc:creator>
     <cc:Agent>
      <dc:title>Matplotlib v3.10.8, https://matplotlib.org/</dc:title>
     </cc:Agent>
    </dc:creator>
   </cc:Work>
  </rdf:RDF>
 </metadata>
 <defs>
  <style type="text/css">*{stroke-linejoin: round; stroke-linecap: butt}</style>
 </defs>
 <g id="figure_1">
  <g id="patch_1">
   <path d="M 0 295.2 
L 410.4 295.2 
L 410.4 0 
L 0 0 
L 0 295.2 
z
" style="fill: none"/>
  </g>
  <g id="axes_1">
   <g id="patch_2">
    <path d="M 88.800391 262.595469 
L 403.2 262.595469 
L 403.2 7.2 
L 88.800391 7.2 
L 88.800391 262.595469 
z
" style="fill: none"/>
   </g>
   <g id="line2d_1">
    <path d="M 380.941621 250.986584 
L 380.941621 250.986584 
" clip-path="url(#pd1eeeeef34)" style="fill: none; stroke: #d4d4d0; stroke-width: 1.2; stroke-linecap: square"/>
   </g>
   <g id="line2d_2">
    <path d="M 380.941621 217.818341 
L 380.941621 217.818341 
" clip-path="url(#pd1eeeeef34)" style="fill: none; stroke: #d4d4d0; stroke-width: 1.2; stroke-linecap: square"/>
   </g>
   <g id="line2d_3">
    <path d="M 339.207159 184.650098 
L 380.941621 184.650098 
" clip-path="url(#pd1eeeeef34)" style="fill: none; stroke: #d4d4d0; stroke-width: 1.2; stroke-linecap: square"/>
   </g>
   <g id="line2d_4">
    <path d="M 275.214318 151.481856 
L 380.941621 151.481856 
" clip-path="url(#pd1eeeeef34)" style="fill: none; stroke: #d4d4d0; stroke-width: 1.2; stroke-linecap: square"/>
   </g>
   <g id="line2d_5">
    <path d="M 241.826749 118.313613 
L 380.941621 118.313613 
" clip-path="url(#pd1eeeeef34)" style="fill: none; stroke: #d4d4d0; stroke-width: 1.2; stroke-linecap: square"/>
   </g>
   <g id="line2d_6">
    <path d="M 133.317149 85.14537 
L 380.941621 85.14537 
" clip-path="url(#pd1eeeeef34)" style="fill: none; stroke: #d4d4d0; stroke-width: 1.2; stroke-linecap: square"/>
   </g>
   <g id="line2d_7">
    <path d="M 124.970257 51.977128 
L 339.207159 51.977128 
" clip-path="url(#pd1eeeeef34)" style="fill: none; stroke: #d4d4d0; stroke-width: 1.2; stroke-linecap: square"/>
   </g>
   <g id="line2d_8">
    <path d="M 102.711878 18.808885 
L 380.941621 18.808885 
" clip-path="url(#pd1eeeeef34)" style="fill: none; stroke: #d4d4d0; stroke-width: 1.2; stroke-linecap: square"/>
   </g>
   <g id="matplotlib.axis_1">
    <g id="xtick_1">
     <g id="line2d_9"/>
     <g id="text_1">
      <text style="font-size: 8.5px; font-family: 'DejaVu Sans'; text-anchor: middle; fill: #6b6b6b" x="102.711878" y="272.554141" transform="rotate(-0 102.711878 272.554141)">0.0</text>
     </g>
    </g>
    <g id="xtick_2">
     <g id="line2d_10"/>
     <g id="text_2">
      <text style="font-size: 8.5px; font-family: 'DejaVu Sans'; text-anchor: middle; fill: #6b6b6b" x="158.357826" y="272.554141" transform="rotate(-0 158.357826 272.554141)">0.2</text>
     </g>
    </g>
    <g id="xtick_3">
     <g id="line2d_11"/>
     <g id="text_3">
      <text style="font-size: 8.5px; font-family: 'DejaVu Sans'; text-anchor: middle; fill: #6b6b6b" x="214.003775" y="272.554141" transform="rotate(-0 214.003775 272.554141)">0.4</text>
     </g>
    </g>
    <g id="xtick_4">
     <g id="line2d_12"/>
     <g id="text_4">
      <text style="font-size: 8.5px; font-family: 'DejaVu Sans'; text-anchor: middle; fill: #6b6b6b" x="269.649723" y="272.554141" transform="rotate(-0 269.649723 272.554141)">0.6</text>
     </g>
    </g>
    <g id="xtick_5">
     <g id="line2d_13"/>
     <g id="text_5">
      <text style="font-size: 8.5px; font-family: 'DejaVu Sans'; text-anchor: middle; fill: #6b6b6b" x="325.295672" y="272.554141" transform="rotate(-0 325.295672 272.554141)">0.8</text>
     </g>
    </g>
    <g id="xtick_6">
     <g id="line2d_14"/>
     <g id="text_6">
      <text style="font-size: 8.5px; font-family: 'DejaVu Sans'; text-anchor: middle; fill: #6b6b6b" x="380.941621" y="272.554141" transform="rotate(-0 380.941621 272.554141)">1.0</text>
     </g>
    </g>
    <g id="text_7">
     <text style="font-size: 10px; font-family: 'DejaVu Sans'; text-anchor: middle; fill: #6b6b6b" x="246.000195" y="285.920312" transform="rotate(-0 246.000195 285.920312)">безопасность (не катит невалидное)</text>
    </g>
   </g>
   <g id="matplotlib.axis_2">
    <g id="ytick_1">
     <g id="line2d_15"/>
     <g id="text_8">
      <text style="font-size: 8.5px; font-family: 'DejaVu Sans'; text-anchor: end; fill: #6b6b6b" x="85.300391" y="254.21592" transform="rotate(-0 85.300391 254.21592)">missing_data</text>
     </g>
    </g>
    <g id="ytick_2">
     <g id="line2d_16"/>
     <g id="text_9">
      <text style="font-size: 8.5px; font-family: 'DejaVu Sans'; text-anchor: end; fill: #6b6b6b" x="85.300391" y="221.047677" transform="rotate(-0 85.300391 221.047677)">logging_bug</text>
     </g>
    </g>
    <g id="ytick_3">
     <g id="line2d_17"/>
     <g id="text_10">
      <text style="font-size: 8.5px; font-family: 'DejaVu Sans'; text-anchor: end; fill: #6b6b6b" x="85.300391" y="187.761231" transform="rotate(-0 85.300391 187.761231)">narrow_gen</text>
     </g>
    </g>
    <g id="ytick_4">
     <g id="line2d_18"/>
     <g id="text_11">
      <text style="font-size: 8.5px; font-family: 'DejaVu Sans'; text-anchor: end; fill: #6b6b6b" x="85.300391" y="154.711192" transform="rotate(-0 85.300391 154.711192)">external_shock</text>
     </g>
    </g>
    <g id="ytick_5">
     <g id="line2d_19"/>
     <g id="text_12">
      <text style="font-size: 8.5px; font-family: 'DejaVu Sans'; text-anchor: end; fill: #6b6b6b" x="85.300391" y="121.542949" transform="rotate(-0 85.300391 121.542949)">seasonality</text>
     </g>
    </g>
    <g id="ytick_6">
     <g id="line2d_20"/>
     <g id="text_13">
      <text style="font-size: 8.5px; font-family: 'DejaVu Sans'; text-anchor: end; fill: #6b6b6b" x="85.300391" y="88.374706" transform="rotate(-0 85.300391 88.374706)">twyman</text>
     </g>
    </g>
    <g id="ytick_7">
     <g id="line2d_21"/>
     <g id="text_14">
      <text style="font-size: 8.5px; font-family: 'DejaVu Sans'; text-anchor: end; fill: #6b6b6b" x="85.300391" y="55.206464" transform="rotate(-0 85.300391 55.206464)">incomplete_cycles</text>
     </g>
    </g>
    <g id="ytick_8">
     <g id="line2d_22"/>
     <g id="text_15">
      <text style="font-size: 8.5px; font-family: 'DejaVu Sans'; text-anchor: end; fill: #6b6b6b" x="85.300391" y="22.038221" transform="rotate(-0 85.300391 22.038221)">interference</text>
     </g>
    </g>
   </g>
   <g id="patch_3">
    <path d="M 88.800391 262.595469 
L 88.800391 7.2 
" style="fill: none; stroke: #d4d4d0; stroke-width: 0.8; stroke-linejoin: miter; stroke-linecap: square"/>
   </g>
   <g id="patch_4">
    <path d="M 88.800391 262.595469 
L 403.2 262.595469 
" style="fill: none; stroke: #d4d4d0; stroke-width: 0.8; stroke-linejoin: miter; stroke-linecap: square"/>
   </g>
   <g id="PathCollection_1">
    <defs>
     <path id="m4b2dfcf08f" d="M 0 3.316625 
C 0.879579 3.316625 1.723251 2.967164 2.345208 2.345208 
C 2.967164 1.723251 3.316625 0.879579 3.316625 0 
C 3.316625 -0.879579 2.967164 -1.723251 2.345208 -2.345208 
C 1.723251 -2.967164 0.879579 -3.316625 0 -3.316625 
C -0.879579 -3.316625 -1.723251 -2.967164 -2.345208 -2.345208 
C -2.967164 -1.723251 -3.316625 -0.879579 -3.316625 0 
C -3.316625 0.879579 -2.967164 1.723251 -2.345208 2.345208 
C -1.723251 2.967164 -0.879579 3.316625 0 3.316625 
z
" style="stroke: #1a1a1a"/>
    </defs>
    <g clip-path="url(#pd1eeeeef34)">
     <use xlink:href="#m4b2dfcf08f" x="380.941621" y="250.986584" style="fill: #1a1a1a; stroke: #1a1a1a"/>
     <use xlink:href="#m4b2dfcf08f" x="380.941621" y="217.818341" style="fill: #1a1a1a; stroke: #1a1a1a"/>
     <use xlink:href="#m4b2dfcf08f" x="380.941621" y="184.650098" style="fill: #1a1a1a; stroke: #1a1a1a"/>
     <use xlink:href="#m4b2dfcf08f" x="380.941621" y="151.481856" style="fill: #1a1a1a; stroke: #1a1a1a"/>
     <use xlink:href="#m4b2dfcf08f" x="380.941621" y="118.313613" style="fill: #1a1a1a; stroke: #1a1a1a"/>
     <use xlink:href="#m4b2dfcf08f" x="380.941621" y="85.14537" style="fill: #1a1a1a; stroke: #1a1a1a"/>
     <use xlink:href="#m4b2dfcf08f" x="339.207159" y="51.977128" style="fill: #1a1a1a; stroke: #1a1a1a"/>
     <use xlink:href="#m4b2dfcf08f" x="380.941621" y="18.808885" style="fill: #1a1a1a; stroke: #1a1a1a"/>
    </g>
   </g>
   <g id="PathCollection_2">
    <defs>
     <path id="m6b69e43a74" d="M 0 3.316625 
C 0.879579 3.316625 1.723251 2.967164 2.345208 2.345208 
C 2.967164 1.723251 3.316625 0.879579 3.316625 0 
C 3.316625 -0.879579 2.967164 -1.723251 2.345208 -2.345208 
C 1.723251 -2.967164 0.879579 -3.316625 0 -3.316625 
C -0.879579 -3.316625 -1.723251 -2.967164 -2.345208 -2.345208 
C -2.967164 -1.723251 -3.316625 -0.879579 -3.316625 0 
C -3.316625 0.879579 -2.967164 1.723251 -2.345208 2.345208 
C -1.723251 2.967164 -0.879579 3.316625 0 3.316625 
z
" style="stroke: #e63946"/>
    </defs>
    <g clip-path="url(#pd1eeeeef34)">
     <use xlink:href="#m6b69e43a74" x="380.941621" y="250.986584" style="fill: #e63946; stroke: #e63946"/>
     <use xlink:href="#m6b69e43a74" x="380.941621" y="217.818341" style="fill: #e63946; stroke: #e63946"/>
     <use xlink:href="#m6b69e43a74" x="339.207159" y="184.650098" style="fill: #e63946; stroke: #e63946"/>
     <use xlink:href="#m6b69e43a74" x="275.214318" y="151.481856" style="fill: #e63946; stroke: #e63946"/>
     <use xlink:href="#m6b69e43a74" x="241.826749" y="118.313613" style="fill: #e63946; stroke: #e63946"/>
     <use xlink:href="#m6b69e43a74" x="133.317149" y="85.14537" style="fill: #e63946; stroke: #e63946"/>
     <use xlink:href="#m6b69e43a74" x="124.970257" y="51.977128" style="fill: #e63946; stroke: #e63946"/>
     <use xlink:href="#m6b69e43a74" x="102.711878" y="18.808885" style="fill: #e63946; stroke: #e63946"/>
    </g>
   </g>
   <g id="legend_1">
    <g id="PathCollection_3">
     <g>
      <use xlink:href="#m4b2dfcf08f" x="104.950391" y="238.470078" style="fill: #1a1a1a; stroke: #1a1a1a"/>
     </g>
    </g>
    <g id="text_16">
     <text style="font-size: 8.5px; font-family: 'DejaVu Sans'; text-anchor: start" x="120.250391" y="240.701328" transform="rotate(-0 120.250391 240.701328)">Sonnet (сильнее)</text>
    </g>
    <g id="PathCollection_4">
     <g>
      <use xlink:href="#m6b69e43a74" x="104.950391" y="250.946484" style="fill: #e63946; stroke: #e63946"/>
     </g>
    </g>
    <g id="text_17">
     <text style="font-size: 8.5px; font-family: 'DejaVu Sans'; text-anchor: start" x="120.250391" y="253.177734" transform="rotate(-0 120.250391 253.177734)">Haiku (слабее)</text>
    </g>
   </g>
  </g>
 </g>
 <defs>
  <clipPath id="pd1eeeeef34">
   <rect x="88.800391" y="7.2" width="314.399609" height="255.395469"/>
  </clipPath>
 </defs>
</svg>
