<svg xmlns="http://www.w3.org/2000/svg" viewBox="0 0 800 400" style="background: #1a1a1a;">
  <!-- Оси -->
  <line x1="60" y1="340" x2="740" y2="340" stroke="#666" stroke-width="1.5"/>
  <line x1="60" y1="340" x2="60" y2="60" stroke="#666" stroke-width="1.5"/>
  
  <!-- Сетка (вертикальные линии для дней) -->
  <g stroke="#333" stroke-width="0.5" opacity="0.5">
    <line x1="120" y1="60" x2="120" y2="340"/>
    <line x1="180" y1="60" x2="180" y2="340"/>
    <line x1="240" y1="60" x2="240" y2="340"/>
    <line x1="300" y1="60" x2="300" y2="340"/>
    <line x1="360" y1="60" x2="360" y2="340"/>
    <line x1="420" y1="60" x2="420" y2="340"/>
    <line x1="480" y1="60" x2="480" y2="340"/>
    <line x1="540" y1="60" x2="540" y2="340"/>
    <line x1="600" y1="60" x2="600" y2="340"/>
    <line x1="660" y1="60" x2="660" y2="340"/>
    <line x1="720" y1="60" x2="720" y2="340"/>
  </g>
  
  <!-- Горизонтальные линии сетки -->
  <g stroke="#333" stroke-width="0.5" opacity="0.5">
    <line x1="60" y1="280" x2="740" y2="280"/>
    <line x1="60" y1="220" x2="740" y2="220"/>
    <line x1="60" y1="160" x2="740" y2="160"/>
    <line x1="60" y1="100" x2="740" y2="100"/>
  </g>
  
  <!-- Контрольная группа: Revenue (пунктир, бледный) -->
  <polyline points="80,200 120,200 180,200 240,200 300,200 360,200 420,200 480,200 540,200 600,200 660,200 720,200" 
            fill="none" stroke="#999" stroke-width="2" stroke-dasharray="4,4" opacity="0.6"/>
  
  <!-- Контрольная группа: CPM (пунктир, бледный) -->
  <polyline points="80,280 120,280 180,280 240,280 300,280 360,280 420,280 480,280 540,280 600,280 660,280 720,280" 
            fill="none" stroke="#666" stroke-width="2" stroke-dasharray="4,4" opacity="0.6"/>
  
  <!-- Тестовая группа: Revenue (растёт) -->
  <polyline points="80,200 120,198 180,196 240,194 300,192 360,190 420,188 480,186 540,184 600,182 660,180 720,178" 
            fill="none" stroke="#4a9eff" stroke-width="2.5"/>
  
  <!-- Тестовая группа: CPM (почти плоская) -->
  <polyline points="80,280 120,279.5 180,279 240,279 300,279 360,279 420,279 480,279 540,279 600,279 660,279 720,279" 
            fill="none" stroke="#ff6b6b" stroke-width="2.5"/>
  
  <!-- Подписи осей -->
  <text x="400" y="370" fill="#ccc" font-size="14" font-family="system-ui" text-anchor="middle">Дни эксперимента</text>
  <text x="20" y="200" fill="#ccc" font-size="14" font-family="system-ui" text-anchor="middle" transform="rotate(-90, 20, 200)">Значение (индекс)</text>
  
  <!-- Метки дней -->
  <text x="80" y="355" fill="#999" font-size="11" font-family="system-ui" text-anchor="middle">1</text>
  <text x="300" y="355" fill="#999" font-size="11" font-family="system-ui" text-anchor="middle">7</text>
  <text x="720" y="355" fill="#999" font-size="11" font-family="system-ui" text-anchor="middle">14</text>
  
  <!-- Метки значений (левая ось) -->
  <text x="45" y="345" fill="#999" font-size="11" font-family="system-ui" text-anchor="end">0.8</text>
  <text x="45" y="285" fill="#999" font-size="11" font-family="system-ui" text-anchor="end">1.0</text>
  <text x="45" y="225" fill="#999" font-size="11" font-family="system-ui" text-anchor="end">1.2</text>
  <text x="45" y="165" fill="#999" font-size="11" font-family="system-ui" text-anchor="end">1.4</text>
  
  <!-- Легенда (без подсказок, только линии) -->
  <g opacity="0.7">
    <line x1="650" y1="80" x2="680" y2="80" stroke="#4a9eff" stroke-width="2.5"/>
    <line x1="650" y1="100" x2="680" y2="100" stroke="#ff6b6b" stroke-width="2.5"/>
    <line x1="650" y1="120" x2="680" y2="120" stroke="#999" stroke-width="2" stroke-dasharray="4,4" opacity="0.6"/>
    <line x1="650" y1="140" x2="680" y2="140" stroke="#666" stroke-width="2" stroke-dasharray="4,4" opacity="0.6"/>
  </g>
</svg>


