<?xml version="1.0" encoding="utf-8" standalone="no"?>
<!DOCTYPE svg PUBLIC "-//W3C//DTD SVG 1.1//EN"
  "http://www.w3.org/Graphics/SVG/1.1/DTD/svg11.dtd">
<svg xmlns:xlink="http://www.w3.org/1999/xlink" width="396.661497pt" height="380.548437pt" viewBox="0 0 396.661497 380.548437" xmlns="http://www.w3.org/2000/svg" version="1.1">
 <metadata>
  <rdf:RDF xmlns:dc="http://purl.org/dc/elements/1.1/" xmlns:cc="http://creativecommons.org/ns#" xmlns:rdf="http://www.w3.org/1999/02/22-rdf-syntax-ns#">
   <cc:Work>
    <dc:type rdf:resource="http://purl.org/dc/dcmitype/StillImage"/>
    <dc:date>2026-05-24T07:38:10.309488</dc:date>
    <dc:format>image/svg+xml</dc:format>
    <dc:creator>
     <cc:Agent>
      <dc:title>Matplotlib v3.10.8, https://matplotlib.org/</dc:title>
     </cc:Agent>
    </dc:creator>
   </cc:Work>
  </rdf:RDF>
 </metadata>
 <defs>
  <style type="text/css">*{stroke-linejoin: round; stroke-linecap: butt}</style>
 </defs>
 <g id="figure_1">
  <g id="patch_1">
   <path d="M 0 380.548437 
L 396.661497 380.548437 
L 396.661497 0 
L 0 0 
L 0 380.548437 
z
" style="fill: none"/>
  </g>
  <g id="axes_1">
   <g id="patch_2">
    <path d="M 44.382031 347.46 
L 384.642031 347.46 
L 384.642031 7.2 
L 44.382031 7.2 
L 44.382031 347.46 
z
" style="fill: none"/>
   </g>
   <g id="line2d_1">
    <path d="M 44.382031 347.46 
L 384.642031 7.2 
" clip-path="url(#p49a4a31f7e)" style="fill: none; stroke-dasharray: 3.7,1.6; stroke-dashoffset: 0; stroke: #6b6b6b"/>
   </g>
   <g id="matplotlib.axis_1">
    <g id="xtick_1">
     <g id="line2d_2"/>
     <g id="text_1">
      <text style="font-size: 9px; font-family: 'DejaVu Sans', sans-serif; text-anchor: middle; fill: #6b6b6b" x="44.382031" y="357.798594" transform="rotate(-0 44.382031 357.798594)">0%</text>
     </g>
    </g>
    <g id="xtick_2">
     <g id="line2d_3"/>
     <g id="text_2">
      <text style="font-size: 9px; font-family: 'DejaVu Sans', sans-serif; text-anchor: middle; fill: #6b6b6b" x="86.26672" y="357.798594" transform="rotate(-0 86.26672 357.798594)">2%</text>
     </g>
    </g>
    <g id="xtick_3">
     <g id="line2d_4"/>
     <g id="text_3">
      <text style="font-size: 9px; font-family: 'DejaVu Sans', sans-serif; text-anchor: middle; fill: #6b6b6b" x="128.151409" y="357.798594" transform="rotate(-0 128.151409 357.798594)">4%</text>
     </g>
    </g>
    <g id="xtick_4">
     <g id="line2d_5"/>
     <g id="text_4">
      <text style="font-size: 9px; font-family: 'DejaVu Sans', sans-serif; text-anchor: middle; fill: #6b6b6b" x="170.036099" y="357.798594" transform="rotate(-0 170.036099 357.798594)">6%</text>
     </g>
    </g>
    <g id="xtick_5">
     <g id="line2d_6"/>
     <g id="text_5">
      <text style="font-size: 9px; font-family: 'DejaVu Sans', sans-serif; text-anchor: middle; fill: #6b6b6b" x="211.920788" y="357.798594" transform="rotate(-0 211.920788 357.798594)">8%</text>
     </g>
    </g>
    <g id="xtick_6">
     <g id="line2d_7"/>
     <g id="text_6">
      <text style="font-size: 9px; font-family: 'DejaVu Sans', sans-serif; text-anchor: middle; fill: #6b6b6b" x="253.805477" y="357.798594" transform="rotate(-0 253.805477 357.798594)">10%</text>
     </g>
    </g>
    <g id="xtick_7">
     <g id="line2d_8"/>
     <g id="text_7">
      <text style="font-size: 9px; font-family: 'DejaVu Sans', sans-serif; text-anchor: middle; fill: #6b6b6b" x="295.690166" y="357.798594" transform="rotate(-0 295.690166 357.798594)">12%</text>
     </g>
    </g>
    <g id="xtick_8">
     <g id="line2d_9"/>
     <g id="text_8">
      <text style="font-size: 9px; font-family: 'DejaVu Sans', sans-serif; text-anchor: middle; fill: #6b6b6b" x="337.574855" y="357.798594" transform="rotate(-0 337.574855 357.798594)">14%</text>
     </g>
    </g>
    <g id="xtick_9">
     <g id="line2d_10"/>
     <g id="text_9">
      <text style="font-size: 9px; font-family: 'DejaVu Sans', sans-serif; text-anchor: middle; fill: #6b6b6b" x="379.459544" y="357.798594" transform="rotate(-0 379.459544 357.798594)">16%</text>
     </g>
    </g>
    <g id="text_10">
     <text style="font-size: 10px; font-family: 'DejaVu Sans', sans-serif; text-anchor: middle; fill: #1a1a1a" x="214.512031" y="371.26875" transform="rotate(-0 214.512031 371.26875)">предсказанная вероятность клика (pCTR)</text>
    </g>
   </g>
   <g id="matplotlib.axis_2">
    <g id="ytick_1">
     <g id="line2d_11"/>
     <g id="text_11">
      <text style="font-size: 9px; font-family: 'DejaVu Sans', sans-serif; text-anchor: end; fill: #6b6b6b" x="40.882031" y="350.879297" transform="rotate(-0 40.882031 350.879297)">0%</text>
     </g>
    </g>
    <g id="ytick_2">
     <g id="line2d_12"/>
     <g id="text_12">
      <text style="font-size: 9px; font-family: 'DejaVu Sans', sans-serif; text-anchor: end; fill: #6b6b6b" x="40.882031" y="308.994608" transform="rotate(-0 40.882031 308.994608)">2%</text>
     </g>
    </g>
    <g id="ytick_3">
     <g id="line2d_13"/>
     <g id="text_13">
      <text style="font-size: 9px; font-family: 'DejaVu Sans', sans-serif; text-anchor: end; fill: #6b6b6b" x="40.882031" y="267.109919" transform="rotate(-0 40.882031 267.109919)">4%</text>
     </g>
    </g>
    <g id="ytick_4">
     <g id="line2d_14"/>
     <g id="text_14">
      <text style="font-size: 9px; font-family: 'DejaVu Sans', sans-serif; text-anchor: end; fill: #6b6b6b" x="40.882031" y="225.22523" transform="rotate(-0 40.882031 225.22523)">6%</text>
     </g>
    </g>
    <g id="ytick_5">
     <g id="line2d_15"/>
     <g id="text_15">
      <text style="font-size: 9px; font-family: 'DejaVu Sans', sans-serif; text-anchor: end; fill: #6b6b6b" x="40.882031" y="183.340541" transform="rotate(-0 40.882031 183.340541)">8%</text>
     </g>
    </g>
    <g id="ytick_6">
     <g id="line2d_16"/>
     <g id="text_16">
      <text style="font-size: 9px; font-family: 'DejaVu Sans', sans-serif; text-anchor: end; fill: #6b6b6b" x="40.882031" y="141.455851" transform="rotate(-0 40.882031 141.455851)">10%</text>
     </g>
    </g>
    <g id="ytick_7">
     <g id="line2d_17"/>
     <g id="text_17">
      <text style="font-size: 9px; font-family: 'DejaVu Sans', sans-serif; text-anchor: end; fill: #6b6b6b" x="40.882031" y="99.571162" transform="rotate(-0 40.882031 99.571162)">12%</text>
     </g>
    </g>
    <g id="ytick_8">
     <g id="line2d_18"/>
     <g id="text_18">
      <text style="font-size: 9px; font-family: 'DejaVu Sans', sans-serif; text-anchor: end; fill: #6b6b6b" x="40.882031" y="57.686473" transform="rotate(-0 40.882031 57.686473)">14%</text>
     </g>
    </g>
    <g id="ytick_9">
     <g id="line2d_19"/>
     <g id="text_19">
      <text style="font-size: 9px; font-family: 'DejaVu Sans', sans-serif; text-anchor: end; fill: #6b6b6b" x="40.882031" y="15.801784" transform="rotate(-0 40.882031 15.801784)">16%</text>
     </g>
    </g>
    <g id="text_20">
     <text style="font-size: 10px; font-family: 'DejaVu Sans', sans-serif; text-anchor: middle; fill: #1a1a1a" x="14.798438" y="177.33" transform="rotate(-90 14.798438 177.33)">фактическая частота клика</text>
    </g>
   </g>
   <g id="patch_3">
    <path d="M 44.382031 347.46 
L 44.382031 7.2 
" style="fill: none; stroke: #d4d4d0; stroke-width: 0.8; stroke-linejoin: miter; stroke-linecap: square"/>
   </g>
   <g id="patch_4">
    <path d="M 44.382031 347.46 
L 384.642031 347.46 
" style="fill: none; stroke: #d4d4d0; stroke-width: 0.8; stroke-linejoin: miter; stroke-linecap: square"/>
   </g>
   <g id="text_21">
    <text style="font-size: 9px; font-family: 'DejaVu Sans', sans-serif; fill: #6b6b6b" transform="translate(323.439387 24.246394)">идеальная</text>
    <text style="font-size: 9px; font-family: 'DejaVu Sans', sans-serif; fill: #6b6b6b" transform="translate(318.853606 35.20755)">калибровка</text>
   </g>
   <g id="line2d_20">
    <path d="M 53.728459 335.538362 
L 72.654787 316.65989 
L 91.430011 298.63467 
L 110.227522 291.574066 
L 129.3345 272.037391 
L 148.132028 236.240769 
L 167.135161 226.470874 
L 186.298436 217.766293 
L 205.192351 169.304638 
L 224.540253 172.940462 
" clip-path="url(#p49a4a31f7e)" style="fill: none; stroke: #1a1a1a; stroke-width: 1.6; stroke-linecap: square"/>
    <defs>
     <path id="m90eaffc0c4" d="M 0 2 
C 0.530406 2 1.03916 1.789267 1.414214 1.414214 
C 1.789267 1.03916 2 0.530406 2 0 
C 2 -0.530406 1.789267 -1.03916 1.414214 -1.414214 
C 1.03916 -1.789267 0.530406 -2 0 -2 
C -0.530406 -2 -1.03916 -1.789267 -1.414214 -1.414214 
C -1.789267 -1.03916 -2 -0.530406 -2 0 
C -2 0.530406 -1.789267 1.03916 -1.414214 1.414214 
C -1.03916 1.789267 -0.530406 2 0 2 
z
" style="stroke: #1a1a1a"/>
    </defs>
    <g clip-path="url(#p49a4a31f7e)">
     <use xlink:href="#m90eaffc0c4" x="53.728459" y="335.538362" style="fill: #1a1a1a; stroke: #1a1a1a"/>
     <use xlink:href="#m90eaffc0c4" x="72.654787" y="316.65989" style="fill: #1a1a1a; stroke: #1a1a1a"/>
     <use xlink:href="#m90eaffc0c4" x="91.430011" y="298.63467" style="fill: #1a1a1a; stroke: #1a1a1a"/>
     <use xlink:href="#m90eaffc0c4" x="110.227522" y="291.574066" style="fill: #1a1a1a; stroke: #1a1a1a"/>
     <use xlink:href="#m90eaffc0c4" x="129.3345" y="272.037391" style="fill: #1a1a1a; stroke: #1a1a1a"/>
     <use xlink:href="#m90eaffc0c4" x="148.132028" y="236.240769" style="fill: #1a1a1a; stroke: #1a1a1a"/>
     <use xlink:href="#m90eaffc0c4" x="167.135161" y="226.470874" style="fill: #1a1a1a; stroke: #1a1a1a"/>
     <use xlink:href="#m90eaffc0c4" x="186.298436" y="217.766293" style="fill: #1a1a1a; stroke: #1a1a1a"/>
     <use xlink:href="#m90eaffc0c4" x="205.192351" y="169.304638" style="fill: #1a1a1a; stroke: #1a1a1a"/>
     <use xlink:href="#m90eaffc0c4" x="224.540253" y="172.940462" style="fill: #1a1a1a; stroke: #1a1a1a"/>
    </g>
   </g>
   <g id="line2d_21">
    <path d="M 62.728629 334.360356 
L 95.211872 317.155136 
L 128.853822 301.977436 
L 162.854627 287.083909 
L 196.778182 276.384165 
L 230.920204 230.311253 
L 264.72767 230.542616 
L 298.858328 206.740689 
L 333.47391 191.50637 
L 368.439174 90.068056 
" clip-path="url(#p49a4a31f7e)" style="fill: none; stroke: #e63946; stroke-width: 1.6; stroke-linecap: square"/>
    <defs>
     <path id="me585c0e985" d="M 0 2 
C 0.530406 2 1.03916 1.789267 1.414214 1.414214 
C 1.789267 1.03916 2 0.530406 2 0 
C 2 -0.530406 1.789267 -1.03916 1.414214 -1.414214 
C 1.03916 -1.789267 0.530406 -2 0 -2 
C -0.530406 -2 -1.03916 -1.789267 -1.414214 -1.414214 
C -1.789267 -1.03916 -2 -0.530406 -2 0 
C -2 0.530406 -1.789267 1.03916 -1.414214 1.414214 
C -1.03916 1.789267 -0.530406 2 0 2 
z
" style="stroke: #e63946"/>
    </defs>
    <g clip-path="url(#p49a4a31f7e)">
     <use xlink:href="#me585c0e985" x="62.728629" y="334.360356" style="fill: #e63946; stroke: #e63946"/>
     <use xlink:href="#me585c0e985" x="95.211872" y="317.155136" style="fill: #e63946; stroke: #e63946"/>
     <use xlink:href="#me585c0e985" x="128.853822" y="301.977436" style="fill: #e63946; stroke: #e63946"/>
     <use xlink:href="#me585c0e985" x="162.854627" y="287.083909" style="fill: #e63946; stroke: #e63946"/>
     <use xlink:href="#me585c0e985" x="196.778182" y="276.384165" style="fill: #e63946; stroke: #e63946"/>
     <use xlink:href="#me585c0e985" x="230.920204" y="230.311253" style="fill: #e63946; stroke: #e63946"/>
     <use xlink:href="#me585c0e985" x="264.72767" y="230.542616" style="fill: #e63946; stroke: #e63946"/>
     <use xlink:href="#me585c0e985" x="298.858328" y="206.740689" style="fill: #e63946; stroke: #e63946"/>
     <use xlink:href="#me585c0e985" x="333.47391" y="191.50637" style="fill: #e63946; stroke: #e63946"/>
     <use xlink:href="#me585c0e985" x="368.439174" y="90.068056" style="fill: #e63946; stroke: #e63946"/>
    </g>
   </g>
   <g id="patch_5">
    <path d="M 249.357179 251.493206 
Q 240.794743 241.655957 232.966344 232.662031 
" style="fill: none; stroke: #e63946; stroke-linecap: round"/>
    <path d="M 233.97217 236.559249 
L 232.966344 232.662031 
L 236.687614 234.195701 
" style="fill: none; stroke: #e63946; stroke-linecap: round"/>
   </g>
   <g id="text_22">
    <text style="font-size: 9px; font-family: 'DejaVu Sans', sans-serif; fill: #e63946" transform="translate(214.512031 261.840909)">предсказывает 4%,</text>
    <text style="font-size: 9px; font-family: 'DejaVu Sans', sans-serif; fill: #e63946" transform="translate(214.512031 272.6028)">кликают ~2%</text>
   </g>
   <g id="legend_1">
    <g id="line2d_22">
     <path d="M 52.932031 19.805313 
L 62.432031 19.805313 
L 71.932031 19.805313 
" style="fill: none; stroke: #1a1a1a; stroke-width: 1.6; stroke-linecap: square"/>
     <g>
      <use xlink:href="#m90eaffc0c4" x="62.432031" y="19.805313" style="fill: #1a1a1a; stroke: #1a1a1a"/>
     </g>
    </g>
    <g id="text_23">
     <text style="font-size: 9.5px; font-family: 'DejaVu Sans', sans-serif; text-anchor: start; fill: #1a1a1a" x="79.532031" y="23.130313" transform="rotate(-0 79.532031 23.130313)">калиброванная модель</text>
    </g>
    <g id="line2d_23">
     <path d="M 52.932031 33.911328 
L 62.432031 33.911328 
L 71.932031 33.911328 
" style="fill: none; stroke: #e63946; stroke-width: 1.6; stroke-linecap: square"/>
     <g>
      <use xlink:href="#me585c0e985" x="62.432031" y="33.911328" style="fill: #e63946; stroke: #e63946"/>
     </g>
    </g>
    <g id="text_24">
     <text style="font-size: 9.5px; font-family: 'DejaVu Sans', sans-serif; text-anchor: start; fill: #1a1a1a" x="79.532031" y="37.236328" transform="rotate(-0 79.532031 37.236328)">некалиброванная (AUC тот же)</text>
    </g>
   </g>
  </g>
 </g>
 <defs>
  <clipPath id="p49a4a31f7e">
   <rect x="44.382031" y="7.2" width="340.26" height="340.26"/>
  </clipPath>
 </defs>
</svg>
