<svg xmlns="http://www.w3.org/2000/svg" viewBox="0 0 800 400" style="background: #1a1a1a;">
  <!-- Оси -->
  <line x1="60" y1="340" x2="740" y2="340" stroke="#666" stroke-width="1.5"/>
  <line x1="60" y1="340" x2="60" y2="60" stroke="#666" stroke-width="1.5"/>
  
  <!-- Сетка (вертикальные линии для дней) -->
  <g stroke="#333" stroke-width="0.5" opacity="0.5">
    <line x1="120" y1="60" x2="120" y2="340"/>
    <line x1="180" y1="60" x2="180" y2="340"/>
    <line x1="240" y1="60" x2="240" y2="340"/>
    <line x1="300" y1="60" x2="300" y2="340"/>
    <line x1="360" y1="60" x2="360" y2="340"/>
    <line x1="420" y1="60" x2="420" y2="340"/>
    <line x1="480" y1="60" x2="480" y2="340"/>
    <line x1="540" y1="60" x2="540" y2="340"/>
    <line x1="600" y1="60" x2="600" y2="340"/>
    <line x1="660" y1="60" x2="660" y2="340"/>
    <line x1="720" y1="60" x2="720" y2="340"/>
  </g>
  
  <!-- Горизонтальные линии сетки -->
  <g stroke="#333" stroke-width="0.5" opacity="0.5">
    <line x1="60" y1="280" x2="740" y2="280"/>
    <line x1="60" y1="220" x2="740" y2="220"/>
    <line x1="60" y1="160" x2="740" y2="160"/>
    <line x1="60" y1="100" x2="740" y2="100"/>
  </g>
  
  <!-- Контрольная группа: CPM (пунктир, бледный) -->
  <polyline points="80,280 120,278 180,276 240,275 300,274 360,273 420,272 480,271 540,270 600,269 660,268 720,267" 
            fill="none" stroke="#666" stroke-width="2" stroke-dasharray="4,4" opacity="0.6"/>
  
  <!-- Контрольная группа: Revenue (пунктир, бледный) -->
  <polyline points="80,200 120,201 180,202 240,203 300,204 360,205 420,206 480,207 540,208 600,209 660,210 720,211" 
            fill="none" stroke="#999" stroke-width="2" stroke-dasharray="4,4" opacity="0.6"/>
  
  <!-- Тестовая группа: CPM (растёт) -->
  Данные: день 0=280, день 14=250 (рост CPM = снижение значения на графике, т.к. ось Y инвертирована) -->
  <polyline points="80,280 120,278 180,275 240,272 300,268 360,265 420,262 480,260 540,258 600,256 660,254 720,252" 
            fill="none" stroke="#4a9eff" stroke-width="2.5"/>
  
  <!-- Тестовая группа: Revenue (падает) -->
  <polyline points="80,200 120,198 180,196 240,194 300,192 360,190 420,188 480,186 540,184 600,182 660,180 720,178" 
            fill="none" stroke="#ff6b6b" stroke-width="2.5"/>
  
  <!-- Подписи осей -->
  <text x="400" y="370" fill="#ccc" font-size="14" font-family="system-ui" text-anchor="middle">Дни эксперимента</text>
  <text x="20" y="200" fill="#ccc" font-size="14" font-family="system-ui" text-anchor="middle" transform="rotate(-90, 20, 200)">Значение (индекс)</text>
  
  <!-- Метки дней -->
  <text x="80" y="355" fill="#999" font-size="11" font-family="system-ui" text-anchor="middle">0</text>
  <text x="300" y="355" fill="#999" font-size="11" font-family="system-ui" text-anchor="middle">7</text>
  <text x="720" y="355" fill="#999" font-size="11" font-family="system-ui" text-anchor="middle">14</text>
  
  <!-- Метки значений (левая ось) -->
  <text x="45" y="345" fill="#999" font-size="11" font-family="system-ui" text-anchor="end">0.8</text>
  <text x="45" y="285" fill="#999" font-size="11" font-family="system-ui" text-anchor="end">1.0</text>
  <text x="45" y="225" fill="#999" font-size="11" font-family="system-ui" text-anchor="end">1.2</text>
  <text x="45" y="165" fill="#999" font-size="11" font-family="system-ui" text-anchor="end">1.4</text>
  
  <!-- Легенда (без подсказок, только линии) -->
  <g opacity="0.7">
    <line x1="650" y1="80" x2="680" y2="80" stroke="#4a9eff" stroke-width="2.5"/>
    <line x1="650" y1="100" x2="680" y2="100" stroke="#ff6b6b" stroke-width="2.5"/>
    <line x1="650" y1="120" x2="680" y2="120" stroke="#666" stroke-width="2" stroke-dasharray="4,4" opacity="0.6"/>
    <line x1="650" y1="140" x2="680" y2="140" stroke="#999" stroke-width="2" stroke-dasharray="4,4" opacity="0.6"/>
  </g>
</svg>


